<svg width="679" height="209" viewBox="0 0 679 209" fill="none" xmlns="http://www.w3.org/2000/svg">
<path d="M23.5781 29.2109H10.0781V38.3516H25.9219V44H3.04688V9.875H25.875V15.5703H10.0781V23.7031H23.5781V29.2109ZM35.8359 18.6406L36.0469 21.5703C37.8594 19.3047 40.2891 18.1719 43.3359 18.1719C46.0234 18.1719 48.0234 18.9609 49.3359 20.5391C50.6484 22.1172 51.3203 24.4766 51.3516 27.6172V44H44.5781V27.7812C44.5781 26.3438 44.2656 25.3047 43.6406 24.6641C43.0156 24.0078 41.9766 23.6797 40.5234 23.6797C38.6172 23.6797 37.1875 24.4922 36.2344 26.1172V44H29.4609V18.6406H35.8359ZM64.6172 12.4062V18.6406H68.9531V23.6094H64.6172V36.2656C64.6172 37.2031 64.7969 37.875 65.1562 38.2812C65.5156 38.6875 66.2031 38.8906 67.2188 38.8906C67.9688 38.8906 68.6328 38.8359 69.2109 38.7266V43.8594C67.8828 44.2656 66.5156 44.4688 65.1094 44.4688C60.3594 44.4688 57.9375 42.0703 57.8438 37.2734V23.6094H54.1406V18.6406H57.8438V12.4062H64.6172ZM86.9766 24.9922C86.0547 24.8672 85.2422 24.8047 84.5391 24.8047C81.9766 24.8047 80.2969 25.6719 79.5 27.4062V44H72.7266V18.6406H79.125L79.3125 21.6641C80.6719 19.3359 82.5547 18.1719 84.9609 18.1719C85.7109 18.1719 86.4141 18.2734 87.0703 18.4766L86.9766 24.9922ZM104.25 44C103.938 43.3906 103.711 42.6328 103.57 41.7266C101.93 43.5547 99.7969 44.4688 97.1719 44.4688C94.6875 44.4688 92.625 43.75 90.9844 42.3125C89.3594 40.875 88.5469 39.0625 88.5469 36.875C88.5469 34.1875 89.5391 32.125 91.5234 30.6875C93.5234 29.25 96.4062 28.5234 100.172 28.5078H103.289V27.0547C103.289 25.8828 102.984 24.9453 102.375 24.2422C101.781 23.5391 100.836 23.1875 99.5391 23.1875C98.3984 23.1875 97.5 23.4609 96.8438 24.0078C96.2031 24.5547 95.8828 25.3047 95.8828 26.2578H89.1094C89.1094 24.7891 89.5625 23.4297 90.4688 22.1797C91.375 20.9297 92.6562 19.9531 94.3125 19.25C95.9688 18.5312 97.8281 18.1719 99.8906 18.1719C103.016 18.1719 105.492 18.9609 107.32 20.5391C109.164 22.1016 110.086 24.3047 110.086 27.1484V38.1406C110.102 40.5469 110.438 42.3672 111.094 43.6016V44H104.25ZM98.6484 39.2891C99.6484 39.2891 100.57 39.0703 101.414 38.6328C102.258 38.1797 102.883 37.5781 103.289 36.8281V32.4688H100.758C97.3672 32.4688 95.5625 33.6406 95.3438 35.9844L95.3203 36.3828C95.3203 37.2266 95.6172 37.9219 96.2109 38.4688C96.8047 39.0156 97.6172 39.2891 98.6484 39.2891ZM141.938 44C141.625 43.3906 141.398 42.6328 141.258 41.7266C139.617 43.5547 137.484 44.4688 134.859 44.4688C132.375 44.4688 130.312 43.75 128.672 42.3125C127.047 40.875 126.234 39.0625 126.234 36.875C126.234 34.1875 127.227 32.125 129.211 30.6875C131.211 29.25 134.094 28.5234 137.859 28.5078H140.977V27.0547C140.977 25.8828 140.672 24.9453 140.062 24.2422C139.469 23.5391 138.523 23.1875 137.227 23.1875C136.086 23.1875 135.188 23.4609 134.531 24.0078C133.891 24.5547 133.57 25.3047 133.57 26.2578H126.797C126.797 24.7891 127.25 23.4297 128.156 22.1797C129.062 20.9297 130.344 19.9531 132 19.25C133.656 18.5312 135.516 18.1719 137.578 18.1719C140.703 18.1719 143.18 18.9609 145.008 20.5391C146.852 22.1016 147.773 24.3047 147.773 27.1484V38.1406C147.789 40.5469 148.125 42.3672 148.781 43.6016V44H141.938ZM136.336 39.2891C137.336 39.2891 138.258 39.0703 139.102 38.6328C139.945 38.1797 140.57 37.5781 140.977 36.8281V32.4688H138.445C135.055 32.4688 133.25 33.6406 133.031 35.9844L133.008 36.3828C133.008 37.2266 133.305 37.9219 133.898 38.4688C134.492 39.0156 135.305 39.2891 136.336 39.2891ZM159.586 21.4062C161.383 19.25 163.641 18.1719 166.359 18.1719C171.859 18.1719 174.648 21.3672 174.727 27.7578V44H167.953V27.9453C167.953 26.4922 167.641 25.4219 167.016 24.7344C166.391 24.0312 165.352 23.6797 163.898 23.6797C161.914 23.6797 160.477 24.4453 159.586 25.9766V44H152.812V8H159.586V21.4062ZM178.781 31.0859C178.781 28.5703 179.266 26.3281 180.234 24.3594C181.203 22.3906 182.594 20.8672 184.406 19.7891C186.234 18.7109 188.352 18.1719 190.758 18.1719C194.18 18.1719 196.969 19.2188 199.125 21.3125C201.297 23.4062 202.508 26.25 202.758 29.8438L202.805 31.5781C202.805 35.4688 201.719 38.5938 199.547 40.9531C197.375 43.2969 194.461 44.4688 190.805 44.4688C187.148 44.4688 184.227 43.2969 182.039 40.9531C179.867 38.6094 178.781 35.4219 178.781 31.3906V31.0859ZM185.555 31.5781C185.555 33.9844 186.008 35.8281 186.914 37.1094C187.82 38.375 189.117 39.0078 190.805 39.0078C192.445 39.0078 193.727 38.3828 194.648 37.1328C195.57 35.8672 196.031 33.8516 196.031 31.0859C196.031 28.7266 195.57 26.8984 194.648 25.6016C193.727 24.3047 192.43 23.6562 190.758 23.6562C189.102 23.6562 187.82 24.3047 186.914 25.6016C186.008 26.8828 185.555 28.875 185.555 31.5781ZM221.227 24.9922C220.305 24.8672 219.492 24.8047 218.789 24.8047C216.227 24.8047 214.547 25.6719 213.75 27.4062V44H206.977V18.6406H213.375L213.562 21.6641C214.922 19.3359 216.805 18.1719 219.211 18.1719C219.961 18.1719 220.664 18.2734 221.32 18.4766L221.227 24.9922ZM238.5 44C238.188 43.3906 237.961 42.6328 237.82 41.7266C236.18 43.5547 234.047 44.4688 231.422 44.4688C228.938 44.4688 226.875 43.75 225.234 42.3125C223.609 40.875 222.797 39.0625 222.797 36.875C222.797 34.1875 223.789 32.125 225.773 30.6875C227.773 29.25 230.656 28.5234 234.422 28.5078H237.539V27.0547C237.539 25.8828 237.234 24.9453 236.625 24.2422C236.031 23.5391 235.086 23.1875 233.789 23.1875C232.648 23.1875 231.75 23.4609 231.094 24.0078C230.453 24.5547 230.133 25.3047 230.133 26.2578H223.359C223.359 24.7891 223.812 23.4297 224.719 22.1797C225.625 20.9297 226.906 19.9531 228.562 19.25C230.219 18.5312 232.078 18.1719 234.141 18.1719C237.266 18.1719 239.742 18.9609 241.57 20.5391C243.414 22.1016 244.336 24.3047 244.336 27.1484V38.1406C244.352 40.5469 244.688 42.3672 245.344 43.6016V44H238.5ZM232.898 39.2891C233.898 39.2891 234.82 39.0703 235.664 38.6328C236.508 38.1797 237.133 37.5781 237.539 36.8281V32.4688H235.008C231.617 32.4688 229.812 33.6406 229.594 35.9844L229.57 36.3828C229.57 37.2266 229.867 37.9219 230.461 38.4688C231.055 39.0156 231.867 39.2891 232.898 39.2891ZM273.164 44.4688C269.445 44.4688 266.414 43.3281 264.07 41.0469C261.742 38.7656 260.578 35.7266 260.578 31.9297V31.2734C260.578 28.7266 261.07 26.4531 262.055 24.4531C263.039 22.4375 264.43 20.8906 266.227 19.8125C268.039 18.7188 270.102 18.1719 272.414 18.1719C275.883 18.1719 278.609 19.2656 280.594 21.4531C282.594 23.6406 283.594 26.7422 283.594 30.7578V33.5234H267.445C267.664 35.1797 268.32 36.5078 269.414 37.5078C270.523 38.5078 271.922 39.0078 273.609 39.0078C276.219 39.0078 278.258 38.0625 279.727 36.1719L283.055 39.8984C282.039 41.3359 280.664 42.4609 278.93 43.2734C277.195 44.0703 275.273 44.4688 273.164 44.4688ZM272.391 23.6562C271.047 23.6562 269.953 24.1094 269.109 25.0156C268.281 25.9219 267.75 27.2188 267.516 28.9062H276.938V28.3672C276.906 26.8672 276.5 25.7109 275.719 24.8984C274.938 24.0703 273.828 23.6562 272.391 23.6562ZM301.195 36.9922C301.195 36.1641 300.781 35.5156 299.953 35.0469C299.141 34.5625 297.828 34.1328 296.016 33.7578C289.984 32.4922 286.969 29.9297 286.969 26.0703C286.969 23.8203 287.898 21.9453 289.758 20.4453C291.633 18.9297 294.078 18.1719 297.094 18.1719C300.312 18.1719 302.883 18.9297 304.805 20.4453C306.742 21.9609 307.711 23.9297 307.711 26.3516H300.938C300.938 25.3828 300.625 24.5859 300 23.9609C299.375 23.3203 298.398 23 297.07 23C295.93 23 295.047 23.2578 294.422 23.7734C293.797 24.2891 293.484 24.9453 293.484 25.7422C293.484 26.4922 293.836 27.1016 294.539 27.5703C295.258 28.0234 296.461 28.4219 298.148 28.7656C299.836 29.0938 301.258 29.4688 302.414 29.8906C305.992 31.2031 307.781 33.4766 307.781 36.7109C307.781 39.0234 306.789 40.8984 304.805 42.3359C302.82 43.7578 300.258 44.4688 297.117 44.4688C294.992 44.4688 293.102 44.0938 291.445 43.3438C289.805 42.5781 288.516 41.5391 287.578 40.2266C286.641 38.8984 286.172 37.4688 286.172 35.9375H292.594C292.656 37.1406 293.102 38.0625 293.93 38.7031C294.758 39.3438 295.867 39.6641 297.258 39.6641C298.555 39.6641 299.531 39.4219 300.188 38.9375C300.859 38.4375 301.195 37.7891 301.195 36.9922ZM332.227 12.4062V18.6406H336.562V23.6094H332.227V36.2656C332.227 37.2031 332.406 37.875 332.766 38.2812C333.125 38.6875 333.812 38.8906 334.828 38.8906C335.578 38.8906 336.242 38.8359 336.82 38.7266V43.8594C335.492 44.2656 334.125 44.4688 332.719 44.4688C327.969 44.4688 325.547 42.0703 325.453 37.2734V23.6094H321.75V18.6406H325.453V12.4062H332.227ZM355.523 41.4219C353.852 43.4531 351.539 44.4688 348.586 44.4688C345.867 44.4688 343.789 43.6875 342.352 42.125C340.93 40.5625 340.203 38.2734 340.172 35.2578V18.6406H346.945V35.0234C346.945 37.6641 348.148 38.9844 350.555 38.9844C352.852 38.9844 354.43 38.1875 355.289 36.5938V18.6406H362.086V44H355.711L355.523 41.4219ZM385.5 18.6406L385.711 21.4766C387.508 19.2734 389.938 18.1719 393 18.1719C396.266 18.1719 398.508 19.4609 399.727 22.0391C401.508 19.4609 404.047 18.1719 407.344 18.1719C410.094 18.1719 412.141 18.9766 413.484 20.5859C414.828 22.1797 415.5 24.5859 415.5 27.8047V44H408.703V27.8281C408.703 26.3906 408.422 25.3438 407.859 24.6875C407.297 24.0156 406.305 23.6797 404.883 23.6797C402.852 23.6797 401.445 24.6484 400.664 26.5859L400.688 44H393.914V27.8516C393.914 26.3828 393.625 25.3203 393.047 24.6641C392.469 24.0078 391.484 23.6797 390.094 23.6797C388.172 23.6797 386.781 24.4766 385.922 26.0703V44H379.148V18.6406H385.5ZM419.672 31.0859C419.672 28.5703 420.156 26.3281 421.125 24.3594C422.094 22.3906 423.484 20.8672 425.297 19.7891C427.125 18.7109 429.242 18.1719 431.648 18.1719C435.07 18.1719 437.859 19.2188 440.016 21.3125C442.188 23.4062 443.398 26.25 443.648 29.8438L443.695 31.5781C443.695 35.4688 442.609 38.5938 440.438 40.9531C438.266 43.2969 435.352 44.4688 431.695 44.4688C428.039 44.4688 425.117 43.2969 422.93 40.9531C420.758 38.6094 419.672 35.4219 419.672 31.3906V31.0859ZM426.445 31.5781C426.445 33.9844 426.898 35.8281 427.805 37.1094C428.711 38.375 430.008 39.0078 431.695 39.0078C433.336 39.0078 434.617 38.3828 435.539 37.1328C436.461 35.8672 436.922 33.8516 436.922 31.0859C436.922 28.7266 436.461 26.8984 435.539 25.6016C434.617 24.3047 433.32 23.6562 431.648 23.6562C429.992 23.6562 428.711 24.3047 427.805 25.6016C426.898 26.8828 426.445 28.875 426.445 31.5781ZM454.219 18.6406L454.43 21.4766C456.227 19.2734 458.656 18.1719 461.719 18.1719C464.984 18.1719 467.227 19.4609 468.445 22.0391C470.227 19.4609 472.766 18.1719 476.062 18.1719C478.812 18.1719 480.859 18.9766 482.203 20.5859C483.547 22.1797 484.219 24.5859 484.219 27.8047V44H477.422V27.8281C477.422 26.3906 477.141 25.3438 476.578 24.6875C476.016 24.0156 475.023 23.6797 473.602 23.6797C471.57 23.6797 470.164 24.6484 469.383 26.5859L469.406 44H462.633V27.8516C462.633 26.3828 462.344 25.3203 461.766 24.6641C461.188 24.0078 460.203 23.6797 458.812 23.6797C456.891 23.6797 455.5 24.4766 454.641 26.0703V44H447.867V18.6406H454.219ZM501.117 44.4688C497.398 44.4688 494.367 43.3281 492.023 41.0469C489.695 38.7656 488.531 35.7266 488.531 31.9297V31.2734C488.531 28.7266 489.023 26.4531 490.008 24.4531C490.992 22.4375 492.383 20.8906 494.18 19.8125C495.992 18.7188 498.055 18.1719 500.367 18.1719C503.836 18.1719 506.562 19.2656 508.547 21.4531C510.547 23.6406 511.547 26.7422 511.547 30.7578V33.5234H495.398C495.617 35.1797 496.273 36.5078 497.367 37.5078C498.477 38.5078 499.875 39.0078 501.562 39.0078C504.172 39.0078 506.211 38.0625 507.68 36.1719L511.008 39.8984C509.992 41.3359 508.617 42.4609 506.883 43.2734C505.148 44.0703 503.227 44.4688 501.117 44.4688ZM500.344 23.6562C499 23.6562 497.906 24.1094 497.062 25.0156C496.234 25.9219 495.703 27.2188 495.469 28.9062H504.891V28.3672C504.859 26.8672 504.453 25.7109 503.672 24.8984C502.891 24.0703 501.781 23.6562 500.344 23.6562ZM521.648 18.6406L521.859 21.5703C523.672 19.3047 526.102 18.1719 529.148 18.1719C531.836 18.1719 533.836 18.9609 535.148 20.5391C536.461 22.1172 537.133 24.4766 537.164 27.6172V44H530.391V27.7812C530.391 26.3438 530.078 25.3047 529.453 24.6641C528.828 24.0078 527.789 23.6797 526.336 23.6797C524.43 23.6797 523 24.4922 522.047 26.1172V44H515.273V18.6406H521.648ZM550.43 12.4062V18.6406H554.766V23.6094H550.43V36.2656C550.43 37.2031 550.609 37.875 550.969 38.2812C551.328 38.6875 552.016 38.8906 553.031 38.8906C553.781 38.8906 554.445 38.8359 555.023 38.7266V43.8594C553.695 44.2656 552.328 44.4688 550.922 44.4688C546.172 44.4688 543.75 42.0703 543.656 37.2734V23.6094H539.953V18.6406H543.656V12.4062H550.43ZM556.781 31.0859C556.781 28.5703 557.266 26.3281 558.234 24.3594C559.203 22.3906 560.594 20.8672 562.406 19.7891C564.234 18.7109 566.352 18.1719 568.758 18.1719C572.18 18.1719 574.969 19.2188 577.125 21.3125C579.297 23.4062 580.508 26.25 580.758 29.8438L580.805 31.5781C580.805 35.4688 579.719 38.5938 577.547 40.9531C575.375 43.2969 572.461 44.4688 568.805 44.4688C565.148 44.4688 562.227 43.2969 560.039 40.9531C557.867 38.6094 556.781 35.4219 556.781 31.3906V31.0859ZM563.555 31.5781C563.555 33.9844 564.008 35.8281 564.914 37.1094C565.82 38.375 567.117 39.0078 568.805 39.0078C570.445 39.0078 571.727 38.3828 572.648 37.1328C573.57 35.8672 574.031 33.8516 574.031 31.0859C574.031 28.7266 573.57 26.8984 572.648 25.6016C571.727 24.3047 570.43 23.6562 568.758 23.6562C567.102 23.6562 565.82 24.3047 564.914 25.6016C564.008 26.8828 563.555 28.875 563.555 31.5781Z" fill="white"/>
<path d="M11.1562 114.484H4.99219L3.82031 118H0.0820312L6.43359 100.938H9.69141L16.0781 118H12.3398L11.1562 114.484ZM5.94141 111.637H10.207L8.0625 105.25L5.94141 111.637ZM28.3008 111.777C28.3008 113.73 27.8555 115.297 26.9648 116.477C26.082 117.648 24.8867 118.234 23.3789 118.234C22.0977 118.234 21.0625 117.789 20.2734 116.898V122.875H16.8867V105.32H20.0273L20.1445 106.562C20.9648 105.578 22.0352 105.086 23.3555 105.086C24.918 105.086 26.1328 105.664 27 106.82C27.8672 107.977 28.3008 109.57 28.3008 111.602V111.777ZM24.9141 111.531C24.9141 110.352 24.7031 109.441 24.2812 108.801C23.8672 108.16 23.2617 107.84 22.4648 107.84C21.4023 107.84 20.6719 108.246 20.2734 109.059V114.25C20.6875 115.086 21.4258 115.504 22.4883 115.504C24.1055 115.504 24.9141 114.18 24.9141 111.531ZM37.5352 108.496C37.0742 108.434 36.668 108.402 36.3164 108.402C35.0352 108.402 34.1953 108.836 33.7969 109.703V118H30.4102V105.32H33.6094L33.7031 106.832C34.3828 105.668 35.3242 105.086 36.5273 105.086C36.9023 105.086 37.2539 105.137 37.582 105.238L37.5352 108.496ZM44.7773 118.234C42.918 118.234 41.4023 117.664 40.2305 116.523C39.0664 115.383 38.4844 113.863 38.4844 111.965V111.637C38.4844 110.363 38.7305 109.227 39.2227 108.227C39.7148 107.219 40.4102 106.445 41.3086 105.906C42.2148 105.359 43.2461 105.086 44.4023 105.086C46.1367 105.086 47.5 105.633 48.4922 106.727C49.4922 107.82 49.9922 109.371 49.9922 111.379V112.762H41.918C42.0273 113.59 42.3555 114.254 42.9023 114.754C43.457 115.254 44.1562 115.504 45 115.504C46.3047 115.504 47.3242 115.031 48.0586 114.086L49.7227 115.949C49.2148 116.668 48.5273 117.23 47.6602 117.637C46.793 118.035 45.832 118.234 44.7773 118.234ZM44.3906 107.828C43.7188 107.828 43.1719 108.055 42.75 108.508C42.3359 108.961 42.0703 109.609 41.9531 110.453H46.6641V110.184C46.6484 109.434 46.4453 108.855 46.0547 108.449C45.6641 108.035 45.1094 107.828 44.3906 107.828ZM55.043 105.32L55.1484 106.785C56.0547 105.652 57.2695 105.086 58.793 105.086C60.1367 105.086 61.1367 105.48 61.793 106.27C62.4492 107.059 62.7852 108.238 62.8008 109.809V118H59.4141V109.891C59.4141 109.172 59.2578 108.652 58.9453 108.332C58.6328 108.004 58.1133 107.84 57.3867 107.84C56.4336 107.84 55.7188 108.246 55.2422 109.059V118H51.8555V105.32H55.043ZM64.8516 111.566C64.8516 109.59 65.293 108.016 66.1758 106.844C67.0664 105.672 68.2812 105.086 69.8203 105.086C71.0547 105.086 72.0742 105.547 72.8789 106.469V100H76.2773V118H73.2188L73.0547 116.652C72.2109 117.707 71.125 118.234 69.7969 118.234C68.3047 118.234 67.1055 117.648 66.1992 116.477C65.3008 115.297 64.8516 113.66 64.8516 111.566ZM68.2383 111.812C68.2383 113 68.4453 113.91 68.8594 114.543C69.2734 115.176 69.875 115.492 70.6641 115.492C71.7109 115.492 72.4492 115.051 72.8789 114.168V109.164C72.457 108.281 71.7266 107.84 70.6875 107.84C69.0547 107.84 68.2383 109.164 68.2383 111.812ZM84.7383 118.234C82.8789 118.234 81.3633 117.664 80.1914 116.523C79.0273 115.383 78.4453 113.863 78.4453 111.965V111.637C78.4453 110.363 78.6914 109.227 79.1836 108.227C79.6758 107.219 80.3711 106.445 81.2695 105.906C82.1758 105.359 83.207 105.086 84.3633 105.086C86.0977 105.086 87.4609 105.633 88.4531 106.727C89.4531 107.82 89.9531 109.371 89.9531 111.379V112.762H81.8789C81.9883 113.59 82.3164 114.254 82.8633 114.754C83.418 115.254 84.1172 115.504 84.9609 115.504C86.2656 115.504 87.2852 115.031 88.0195 114.086L89.6836 115.949C89.1758 116.668 88.4883 117.23 87.6211 117.637C86.7539 118.035 85.793 118.234 84.7383 118.234ZM84.3516 107.828C83.6797 107.828 83.1328 108.055 82.7109 108.508C82.2969 108.961 82.0312 109.609 81.9141 110.453H86.625V110.184C86.6094 109.434 86.4062 108.855 86.0156 108.449C85.625 108.035 85.0703 107.828 84.3516 107.828ZM105.211 118C105.055 117.695 104.941 117.316 104.871 116.863C104.051 117.777 102.984 118.234 101.672 118.234C100.43 118.234 99.3984 117.875 98.5781 117.156C97.7656 116.438 97.3594 115.531 97.3594 114.438C97.3594 113.094 97.8555 112.062 98.8477 111.344C99.8477 110.625 101.289 110.262 103.172 110.254H104.73V109.527C104.73 108.941 104.578 108.473 104.273 108.121C103.977 107.77 103.504 107.594 102.855 107.594C102.285 107.594 101.836 107.73 101.508 108.004C101.188 108.277 101.027 108.652 101.027 109.129H97.6406C97.6406 108.395 97.8672 107.715 98.3203 107.09C98.7734 106.465 99.4141 105.977 100.242 105.625C101.07 105.266 102 105.086 103.031 105.086C104.594 105.086 105.832 105.48 106.746 106.27C107.668 107.051 108.129 108.152 108.129 109.574V115.07C108.137 116.273 108.305 117.184 108.633 117.801V118H105.211ZM102.41 115.645C102.91 115.645 103.371 115.535 103.793 115.316C104.215 115.09 104.527 114.789 104.73 114.414V112.234H103.465C101.77 112.234 100.867 112.82 100.758 113.992L100.746 114.191C100.746 114.613 100.895 114.961 101.191 115.234C101.488 115.508 101.895 115.645 102.41 115.645ZM121.98 115.504C122.605 115.504 123.113 115.332 123.504 114.988C123.895 114.645 124.098 114.188 124.113 113.617H127.289C127.281 114.477 127.047 115.266 126.586 115.984C126.125 116.695 125.492 117.25 124.688 117.648C123.891 118.039 123.008 118.234 122.039 118.234C120.227 118.234 118.797 117.66 117.75 116.512C116.703 115.355 116.18 113.762 116.18 111.73V111.508C116.18 109.555 116.699 107.996 117.738 106.832C118.777 105.668 120.203 105.086 122.016 105.086C123.602 105.086 124.871 105.539 125.824 106.445C126.785 107.344 127.273 108.543 127.289 110.043H124.113C124.098 109.387 123.895 108.855 123.504 108.449C123.113 108.035 122.598 107.828 121.957 107.828C121.168 107.828 120.57 108.117 120.164 108.695C119.766 109.266 119.566 110.195 119.566 111.484V111.836C119.566 113.141 119.766 114.078 120.164 114.648C120.562 115.219 121.168 115.504 121.98 115.504ZM136.348 108.496C135.887 108.434 135.48 108.402 135.129 108.402C133.848 108.402 133.008 108.836 132.609 109.703V118H129.223V105.32H132.422L132.516 106.832C133.195 105.668 134.137 105.086 135.34 105.086C135.715 105.086 136.066 105.137 136.395 105.238L136.348 108.496ZM143.59 118.234C141.73 118.234 140.215 117.664 139.043 116.523C137.879 115.383 137.297 113.863 137.297 111.965V111.637C137.297 110.363 137.543 109.227 138.035 108.227C138.527 107.219 139.223 106.445 140.121 105.906C141.027 105.359 142.059 105.086 143.215 105.086C144.949 105.086 146.312 105.633 147.305 106.727C148.305 107.82 148.805 109.371 148.805 111.379V112.762H140.73C140.84 113.59 141.168 114.254 141.715 114.754C142.27 115.254 142.969 115.504 143.812 115.504C145.117 115.504 146.137 115.031 146.871 114.086L148.535 115.949C148.027 116.668 147.34 117.23 146.473 117.637C145.605 118.035 144.645 118.234 143.59 118.234ZM143.203 107.828C142.531 107.828 141.984 108.055 141.562 108.508C141.148 108.961 140.883 109.609 140.766 110.453H145.477V110.184C145.461 109.434 145.258 108.855 144.867 108.449C144.477 108.035 143.922 107.828 143.203 107.828ZM158.086 118C157.93 117.695 157.816 117.316 157.746 116.863C156.926 117.777 155.859 118.234 154.547 118.234C153.305 118.234 152.273 117.875 151.453 117.156C150.641 116.438 150.234 115.531 150.234 114.438C150.234 113.094 150.73 112.062 151.723 111.344C152.723 110.625 154.164 110.262 156.047 110.254H157.605V109.527C157.605 108.941 157.453 108.473 157.148 108.121C156.852 107.77 156.379 107.594 155.73 107.594C155.16 107.594 154.711 107.73 154.383 108.004C154.062 108.277 153.902 108.652 153.902 109.129H150.516C150.516 108.395 150.742 107.715 151.195 107.09C151.648 106.465 152.289 105.977 153.117 105.625C153.945 105.266 154.875 105.086 155.906 105.086C157.469 105.086 158.707 105.48 159.621 106.27C160.543 107.051 161.004 108.152 161.004 109.574V115.07C161.012 116.273 161.18 117.184 161.508 117.801V118H158.086ZM155.285 115.645C155.785 115.645 156.246 115.535 156.668 115.316C157.09 115.09 157.402 114.789 157.605 114.414V112.234H156.34C154.645 112.234 153.742 112.82 153.633 113.992L153.621 114.191C153.621 114.613 153.77 114.961 154.066 115.234C154.363 115.508 154.77 115.645 155.285 115.645ZM170.73 108.496C170.27 108.434 169.863 108.402 169.512 108.402C168.23 108.402 167.391 108.836 166.992 109.703V118H163.605V105.32H166.805L166.898 106.832C167.578 105.668 168.52 105.086 169.723 105.086C170.098 105.086 170.449 105.137 170.777 105.238L170.73 108.496ZM189.762 111.777C189.762 113.73 189.316 115.297 188.426 116.477C187.543 117.648 186.348 118.234 184.84 118.234C183.559 118.234 182.523 117.789 181.734 116.898V122.875H178.348V105.32H181.488L181.605 106.562C182.426 105.578 183.496 105.086 184.816 105.086C186.379 105.086 187.594 105.664 188.461 106.82C189.328 107.977 189.762 109.57 189.762 111.602V111.777ZM186.375 111.531C186.375 110.352 186.164 109.441 185.742 108.801C185.328 108.16 184.723 107.84 183.926 107.84C182.863 107.84 182.133 108.246 181.734 109.059V114.25C182.148 115.086 182.887 115.504 183.949 115.504C185.566 115.504 186.375 114.18 186.375 111.531ZM199.219 118C199.062 117.695 198.949 117.316 198.879 116.863C198.059 117.777 196.992 118.234 195.68 118.234C194.438 118.234 193.406 117.875 192.586 117.156C191.773 116.438 191.367 115.531 191.367 114.438C191.367 113.094 191.863 112.062 192.855 111.344C193.855 110.625 195.297 110.262 197.18 110.254H198.738V109.527C198.738 108.941 198.586 108.473 198.281 108.121C197.984 107.77 197.512 107.594 196.863 107.594C196.293 107.594 195.844 107.73 195.516 108.004C195.195 108.277 195.035 108.652 195.035 109.129H191.648C191.648 108.395 191.875 107.715 192.328 107.09C192.781 106.465 193.422 105.977 194.25 105.625C195.078 105.266 196.008 105.086 197.039 105.086C198.602 105.086 199.84 105.48 200.754 106.27C201.676 107.051 202.137 108.152 202.137 109.574V115.07C202.145 116.273 202.312 117.184 202.641 117.801V118H199.219ZM196.418 115.645C196.918 115.645 197.379 115.535 197.801 115.316C198.223 115.09 198.535 114.789 198.738 114.414V112.234H197.473C195.777 112.234 194.875 112.82 194.766 113.992L194.754 114.191C194.754 114.613 194.902 114.961 195.199 115.234C195.496 115.508 195.902 115.645 196.418 115.645ZM204.246 111.566C204.246 109.621 204.707 108.055 205.629 106.867C206.559 105.68 207.809 105.086 209.379 105.086C210.77 105.086 211.852 105.562 212.625 106.516L212.766 105.32H215.836V117.578C215.836 118.688 215.582 119.652 215.074 120.473C214.574 121.293 213.867 121.918 212.953 122.348C212.039 122.777 210.969 122.992 209.742 122.992C208.812 122.992 207.906 122.805 207.023 122.43C206.141 122.062 205.473 121.586 205.02 121L206.52 118.938C207.363 119.883 208.387 120.355 209.59 120.355C210.488 120.355 211.188 120.113 211.688 119.629C212.188 119.152 212.438 118.473 212.438 117.59V116.91C211.656 117.793 210.629 118.234 209.355 118.234C207.832 118.234 206.598 117.641 205.652 116.453C204.715 115.258 204.246 113.676 204.246 111.707V111.566ZM207.633 111.812C207.633 112.961 207.863 113.863 208.324 114.52C208.785 115.168 209.418 115.492 210.223 115.492C211.254 115.492 211.992 115.105 212.438 114.332V109C211.984 108.227 211.254 107.84 210.246 107.84C209.434 107.84 208.793 108.172 208.324 108.836C207.863 109.5 207.633 110.492 207.633 111.812ZM222.023 118H218.625V105.32H222.023V118ZM218.426 102.039C218.426 101.531 218.594 101.113 218.93 100.785C219.273 100.457 219.738 100.293 220.324 100.293C220.902 100.293 221.363 100.457 221.707 100.785C222.051 101.113 222.223 101.531 222.223 102.039C222.223 102.555 222.047 102.977 221.695 103.305C221.352 103.633 220.895 103.797 220.324 103.797C219.754 103.797 219.293 103.633 218.941 103.305C218.598 102.977 218.426 102.555 218.426 102.039ZM227.941 105.32L228.047 106.785C228.953 105.652 230.168 105.086 231.691 105.086C233.035 105.086 234.035 105.48 234.691 106.27C235.348 107.059 235.684 108.238 235.699 109.809V118H232.312V109.891C232.312 109.172 232.156 108.652 231.844 108.332C231.531 108.004 231.012 107.84 230.285 107.84C229.332 107.84 228.617 108.246 228.141 109.059V118H224.754V105.32H227.941ZM245.625 118C245.469 117.695 245.355 117.316 245.285 116.863C244.465 117.777 243.398 118.234 242.086 118.234C240.844 118.234 239.812 117.875 238.992 117.156C238.18 116.438 237.773 115.531 237.773 114.438C237.773 113.094 238.27 112.062 239.262 111.344C240.262 110.625 241.703 110.262 243.586 110.254H245.145V109.527C245.145 108.941 244.992 108.473 244.688 108.121C244.391 107.77 243.918 107.594 243.27 107.594C242.699 107.594 242.25 107.73 241.922 108.004C241.602 108.277 241.441 108.652 241.441 109.129H238.055C238.055 108.395 238.281 107.715 238.734 107.09C239.188 106.465 239.828 105.977 240.656 105.625C241.484 105.266 242.414 105.086 243.445 105.086C245.008 105.086 246.246 105.48 247.16 106.27C248.082 107.051 248.543 108.152 248.543 109.574V115.07C248.551 116.273 248.719 117.184 249.047 117.801V118H245.625ZM242.824 115.645C243.324 115.645 243.785 115.535 244.207 115.316C244.629 115.09 244.941 114.789 245.145 114.414V112.234H243.879C242.184 112.234 241.281 112.82 241.172 113.992L241.16 114.191C241.16 114.613 241.309 114.961 241.605 115.234C241.902 115.508 242.309 115.645 242.824 115.645ZM258.012 114.496C258.012 114.082 257.805 113.758 257.391 113.523C256.984 113.281 256.328 113.066 255.422 112.879C252.406 112.246 250.898 110.965 250.898 109.035C250.898 107.91 251.363 106.973 252.293 106.223C253.23 105.465 254.453 105.086 255.961 105.086C257.57 105.086 258.855 105.465 259.816 106.223C260.785 106.98 261.27 107.965 261.27 109.176H257.883C257.883 108.691 257.727 108.293 257.414 107.98C257.102 107.66 256.613 107.5 255.949 107.5C255.379 107.5 254.938 107.629 254.625 107.887C254.312 108.145 254.156 108.473 254.156 108.871C254.156 109.246 254.332 109.551 254.684 109.785C255.043 110.012 255.645 110.211 256.488 110.383C257.332 110.547 258.043 110.734 258.621 110.945C260.41 111.602 261.305 112.738 261.305 114.355C261.305 115.512 260.809 116.449 259.816 117.168C258.824 117.879 257.543 118.234 255.973 118.234C254.91 118.234 253.965 118.047 253.137 117.672C252.316 117.289 251.672 116.77 251.203 116.113C250.734 115.449 250.5 114.734 250.5 113.969H253.711C253.742 114.57 253.965 115.031 254.379 115.352C254.793 115.672 255.348 115.832 256.043 115.832C256.691 115.832 257.18 115.711 257.508 115.469C257.844 115.219 258.012 114.895 258.012 114.496ZM280.5 113.395L282.164 105.32H285.434L282.199 118H279.363L276.961 110.02L274.559 118H271.734L268.5 105.32H271.77L273.422 113.383L275.742 105.32H278.191L280.5 113.395ZM292.957 118.234C291.098 118.234 289.582 117.664 288.41 116.523C287.246 115.383 286.664 113.863 286.664 111.965V111.637C286.664 110.363 286.91 109.227 287.402 108.227C287.895 107.219 288.59 106.445 289.488 105.906C290.395 105.359 291.426 105.086 292.582 105.086C294.316 105.086 295.68 105.633 296.672 106.727C297.672 107.82 298.172 109.371 298.172 111.379V112.762H290.098C290.207 113.59 290.535 114.254 291.082 114.754C291.637 115.254 292.336 115.504 293.18 115.504C294.484 115.504 295.504 115.031 296.238 114.086L297.902 115.949C297.395 116.668 296.707 117.23 295.84 117.637C294.973 118.035 294.012 118.234 292.957 118.234ZM292.57 107.828C291.898 107.828 291.352 108.055 290.93 108.508C290.516 108.961 290.25 109.609 290.133 110.453H294.844V110.184C294.828 109.434 294.625 108.855 294.234 108.449C293.844 108.035 293.289 107.828 292.57 107.828ZM311.531 111.777C311.531 113.809 311.098 115.395 310.23 116.535C309.363 117.668 308.152 118.234 306.598 118.234C305.223 118.234 304.125 117.707 303.305 116.652L303.152 118H300.105V100H303.492V106.457C304.273 105.543 305.301 105.086 306.574 105.086C308.121 105.086 309.332 105.656 310.207 106.797C311.09 107.93 311.531 109.527 311.531 111.59V111.777ZM308.145 111.531C308.145 110.25 307.941 109.316 307.535 108.73C307.129 108.137 306.523 107.84 305.719 107.84C304.641 107.84 303.898 108.281 303.492 109.164V114.168C303.906 115.059 304.656 115.504 305.742 115.504C306.836 115.504 307.555 114.965 307.898 113.887C308.062 113.371 308.145 112.586 308.145 111.531Z" fill="white"/>
<path d="M0 143C0 140.791 1.79086 139 4 139H246C248.209 139 250 140.791 250 143V205C250 207.209 248.209 209 246 209H3.99999C1.79085 209 0 207.209 0 205V143Z" fill="#FFFEFE"/>
<path d="M72.625 173.113H65.2305V179.16H73.8203V181H62.9805V163.938H73.7031V165.789H65.2305V171.273H72.625V173.113ZM78.332 168.32L78.4023 169.914C79.3711 168.695 80.6367 168.086 82.1992 168.086C84.8789 168.086 86.2305 169.598 86.2539 172.621V181H84.0859V172.609C84.0781 171.695 83.8672 171.02 83.4531 170.582C83.0469 170.145 82.4102 169.926 81.543 169.926C80.8398 169.926 80.2227 170.113 79.6914 170.488C79.1602 170.863 78.7461 171.355 78.4492 171.965V181H76.2812V168.32H78.332ZM92.4648 165.25V168.32H94.832V169.996H92.4648V177.859C92.4648 178.367 92.5703 178.75 92.7812 179.008C92.9922 179.258 93.3516 179.383 93.8594 179.383C94.1094 179.383 94.4531 179.336 94.8906 179.242V181C94.3203 181.156 93.7656 181.234 93.2266 181.234C92.2578 181.234 91.5273 180.941 91.0352 180.355C90.543 179.77 90.2969 178.938 90.2969 177.859V169.996H87.9883V168.32H90.2969V165.25H92.4648ZM103.504 170.266C103.176 170.211 102.82 170.184 102.438 170.184C101.016 170.184 100.051 170.789 99.543 172V181H97.375V168.32H99.4844L99.5195 169.785C100.23 168.652 101.238 168.086 102.543 168.086C102.965 168.086 103.285 168.141 103.504 168.25V170.266ZM112.867 181C112.742 180.75 112.641 180.305 112.562 179.664C111.555 180.711 110.352 181.234 108.953 181.234C107.703 181.234 106.676 180.883 105.871 180.18C105.074 179.469 104.676 178.57 104.676 177.484C104.676 176.164 105.176 175.141 106.176 174.414C107.184 173.68 108.598 173.312 110.418 173.312H112.527V172.316C112.527 171.559 112.301 170.957 111.848 170.512C111.395 170.059 110.727 169.832 109.844 169.832C109.07 169.832 108.422 170.027 107.898 170.418C107.375 170.809 107.113 171.281 107.113 171.836H104.934C104.934 171.203 105.156 170.594 105.602 170.008C106.055 169.414 106.664 168.945 107.43 168.602C108.203 168.258 109.051 168.086 109.973 168.086C111.434 168.086 112.578 168.453 113.406 169.188C114.234 169.914 114.664 170.918 114.695 172.199V178.035C114.695 179.199 114.844 180.125 115.141 180.812V181H112.867ZM109.27 179.348C109.949 179.348 110.594 179.172 111.203 178.82C111.812 178.469 112.254 178.012 112.527 177.449V174.848H110.828C108.172 174.848 106.844 175.625 106.844 177.18C106.844 177.859 107.07 178.391 107.523 178.773C107.977 179.156 108.559 179.348 109.27 179.348ZM133.809 176.547H126.66L125.055 181H122.734L129.25 163.938H131.219L137.746 181H135.438L133.809 176.547ZM127.34 174.695H133.141L130.234 166.715L127.34 174.695ZM141.871 169.855C142.832 168.676 144.082 168.086 145.621 168.086C148.301 168.086 149.652 169.598 149.676 172.621V181H147.508V172.609C147.5 171.695 147.289 171.02 146.875 170.582C146.469 170.145 145.832 169.926 144.965 169.926C144.262 169.926 143.645 170.113 143.113 170.488C142.582 170.863 142.168 171.355 141.871 171.965V181H139.703V163H141.871V169.855ZM152.348 174.543C152.348 173.301 152.59 172.184 153.074 171.191C153.566 170.199 154.246 169.434 155.113 168.895C155.988 168.355 156.984 168.086 158.102 168.086C159.828 168.086 161.223 168.684 162.285 169.879C163.355 171.074 163.891 172.664 163.891 174.648V174.801C163.891 176.035 163.652 177.145 163.176 178.129C162.707 179.105 162.031 179.867 161.148 180.414C160.273 180.961 159.266 181.234 158.125 181.234C156.406 181.234 155.012 180.637 153.941 179.441C152.879 178.246 152.348 176.664 152.348 174.695V174.543ZM154.527 174.801C154.527 176.207 154.852 177.336 155.5 178.188C156.156 179.039 157.031 179.465 158.125 179.465C159.227 179.465 160.102 179.035 160.75 178.176C161.398 177.309 161.723 176.098 161.723 174.543C161.723 173.152 161.391 172.027 160.727 171.168C160.07 170.301 159.195 169.867 158.102 169.867C157.031 169.867 156.168 170.293 155.512 171.145C154.855 171.996 154.527 173.215 154.527 174.801ZM172.738 170.266C172.41 170.211 172.055 170.184 171.672 170.184C170.25 170.184 169.285 170.789 168.777 172V181H166.609V168.32H168.719L168.754 169.785C169.465 168.652 170.473 168.086 171.777 168.086C172.199 168.086 172.52 168.141 172.738 168.25V170.266ZM182.102 181C181.977 180.75 181.875 180.305 181.797 179.664C180.789 180.711 179.586 181.234 178.188 181.234C176.938 181.234 175.91 180.883 175.105 180.18C174.309 179.469 173.91 178.57 173.91 177.484C173.91 176.164 174.41 175.141 175.41 174.414C176.418 173.68 177.832 173.312 179.652 173.312H181.762V172.316C181.762 171.559 181.535 170.957 181.082 170.512C180.629 170.059 179.961 169.832 179.078 169.832C178.305 169.832 177.656 170.027 177.133 170.418C176.609 170.809 176.348 171.281 176.348 171.836H174.168C174.168 171.203 174.391 170.594 174.836 170.008C175.289 169.414 175.898 168.945 176.664 168.602C177.438 168.258 178.285 168.086 179.207 168.086C180.668 168.086 181.812 168.453 182.641 169.188C183.469 169.914 183.898 170.918 183.93 172.199V178.035C183.93 179.199 184.078 180.125 184.375 180.812V181H182.102ZM178.504 179.348C179.184 179.348 179.828 179.172 180.438 178.82C181.047 178.469 181.488 178.012 181.762 177.449V174.848H180.062C177.406 174.848 176.078 175.625 176.078 177.18C176.078 177.859 176.305 178.391 176.758 178.773C177.211 179.156 177.793 179.348 178.504 179.348Z" fill="#4776E6"/>
</svg>
