<svg width="600" height="450" viewBox="0 0 600 450" fill="none" xmlns="http://www.w3.org/2000/svg">
<path d="M308.31 416.715L532.935 295.02C534.554 294.178 535.917 292.917 536.882 291.368C537.846 289.819 538.377 288.039 538.418 286.215C538.46 284.391 538.01 282.589 537.117 280.997C536.223 279.406 534.919 278.084 533.34 277.17L315.585 147C313.919 146.011 312.022 145.477 310.085 145.45C308.148 145.424 306.237 145.907 304.545 146.85L66.93 279.915C65.3133 280.788 63.9627 282.082 63.0214 283.659C62.0801 285.237 61.5832 287.04 61.5832 288.878C61.5832 290.715 62.0801 292.518 63.0214 294.096C63.9627 295.673 65.3133 296.967 66.93 297.84L278.805 416.505C283.309 419.016 288.374 420.352 293.531 420.388C298.687 420.425 303.77 419.162 308.31 416.715V416.715Z" fill="#00275E"/>
<path d="M270.285 235.965C270.285 235.965 224.85 260.22 214.095 318.09C214.095 318.09 258.345 327.465 317.595 278.46" fill="#EB773A"/>
<path d="M269.715 243.345C269.715 243.345 250.335 260.73 244.875 273C239.415 285.27 232.29 303.225 232.29 303.225C232.29 303.225 266.415 306.135 298.5 286.5C330.585 266.865 300 230.145 269.715 243.345Z" fill="#FFAE46"/>
<path d="M288.975 237.24C287.805 239.205 267.84 250.455 264.105 266.685L270.615 261.75C270.615 261.75 259.545 277.26 254.85 286.185C254.85 286.185 281.85 275.43 281.01 276.075L273.375 281.865C273.375 281.865 293.91 281.43 307.875 268.95C321.84 256.47 302.64 234.705 302.64 234.705L288.975 237.24Z" fill="#FAD374"/>
<path d="M349.23 237.09C349.23 237.09 345.705 259.965 338.16 265.59C330.615 271.215 306.12 289.86 306.12 289.86L302.055 284.49C302.055 284.49 318.945 254.385 321.93 241.095C324.915 227.805 349.23 237.09 349.23 237.09Z" fill="#68E1FD"/>
<path opacity="0.61" d="M349.23 237.09C349.23 237.09 345.705 259.965 338.16 265.59C330.615 271.215 306.12 289.86 306.12 289.86L302.055 284.49C302.055 284.49 318.945 254.385 321.93 241.095C324.915 227.805 349.23 237.09 349.23 237.09Z" fill="#363636"/>
<path d="M324.84 204.9C324.84 204.9 301.86 202.11 294.33 207.9C286.8 213.69 262.29 232.17 262.29 232.17L266.355 237.54C266.355 237.54 299.91 229.425 313.515 230.16C327.12 230.895 324.84 204.9 324.84 204.9Z" fill="#68E1FD"/>
<path opacity="0.61" d="M324.84 204.9C324.84 204.9 301.86 202.11 294.33 207.9C286.8 213.69 262.29 232.17 262.29 232.17L266.355 237.54C266.355 237.54 299.91 229.425 313.515 230.16C327.12 230.895 324.84 204.9 324.84 204.9Z" fill="#363636"/>
<path d="M435.165 166.5C441.24 157.011 446.145 146.822 449.775 136.155C449.775 136.155 436.425 136.305 416.475 142.245C418.065 152.4 426.18 160.5 435.165 166.5Z" fill="#68E1FD"/>
<path d="M381.648 207.727C387.987 202.924 388.701 193.19 383.243 185.987C377.784 178.783 368.221 176.836 361.882 181.639C355.543 186.442 354.829 196.175 360.287 203.379C365.746 210.583 375.309 212.529 381.648 207.727Z" fill="#68E1FD"/>
<path d="M496.395 100.245C496.395 100.245 370.695 131.505 306.825 224.055C306.825 224.055 291.825 240.06 299.07 248.955C306.315 257.85 330.465 250.77 330.465 250.77C330.465 250.77 409.83 228.24 496.395 100.245Z" fill="#68E1FD"/>
<path d="M306.825 224.055C306.825 224.055 290.985 222.135 285.825 226.08C280.665 230.025 263.745 242.805 263.745 242.805L266.55 246.51C266.55 246.51 289.68 240.915 299.04 241.425C308.4 241.935 306.825 224.055 306.825 224.055Z" fill="#68E1FD"/>
<path d="M325.905 249.24C325.905 249.24 323.475 265.005 318.27 268.935C313.065 272.865 296.19 285.66 296.19 285.66L293.4 282C293.4 282 305.04 261.255 307.095 252.09C309.15 242.925 325.905 249.24 325.905 249.24Z" fill="#68E1FD"/>
<path opacity="0.29" d="M306.825 224.055C306.825 224.055 290.985 222.135 285.825 226.08C280.665 230.025 263.745 242.805 263.745 242.805L266.55 246.51C266.55 246.51 289.68 240.915 299.04 241.425C308.4 241.935 306.825 224.055 306.825 224.055Z" fill="#363636"/>
<path opacity="0.29" d="M325.905 249.24C325.905 249.24 323.475 265.005 318.27 268.935C313.065 272.865 296.19 285.66 296.19 285.66L293.4 282C293.4 282 305.04 261.255 307.095 252.09C309.15 242.925 325.905 249.24 325.905 249.24Z" fill="#363636"/>
<path d="M435.33 122.79C435.33 122.79 434.895 144.045 457.395 151.92L444.345 166.74C444.345 166.74 416.085 150.855 420.465 129.99L435.33 122.79Z" fill="#68E1FD"/>
<path d="M354.615 172.065C354.615 172.065 354.87 208.065 388.44 218.31L363.51 235.35C363.51 235.35 327.51 222.855 334.185 190.83L354.615 172.065Z" fill="#68E1FD"/>
<path d="M415.293 166.875C417.525 165.184 417.964 162.004 416.273 159.772C414.582 157.54 411.402 157.102 409.17 158.792C406.938 160.483 406.5 163.664 408.19 165.895C409.881 168.127 413.062 168.566 415.293 166.875Z" fill="#68E1FD"/>
<path d="M396.882 193.431C402.727 189.047 403.912 180.754 399.528 174.909C395.144 169.064 386.851 167.879 381.006 172.263C375.161 176.647 373.976 184.94 378.36 190.785C382.744 196.63 391.037 197.815 396.882 193.431Z" fill="#68E1FD"/>
<path opacity="0.61" d="M435.33 122.79C435.33 122.79 434.895 144.045 457.395 151.92L444.345 166.74C444.345 166.74 416.085 150.855 420.465 129.99L435.33 122.79Z" fill="#606060"/>
<path opacity="0.61" d="M354.615 172.065C354.615 172.065 354.87 208.065 388.44 218.31L363.51 235.35C363.51 235.35 327.51 222.855 334.185 190.83L354.615 172.065Z" fill="#606060"/>
<path opacity="0.61" d="M415.293 166.875C417.525 165.184 417.964 162.004 416.273 159.772C414.582 157.54 411.402 157.102 409.17 158.792C406.938 160.483 406.5 163.664 408.19 165.895C409.881 168.127 413.062 168.566 415.293 166.875Z" fill="#606060"/>
<path opacity="0.61" d="M396.882 193.431C402.727 189.047 403.912 180.754 399.528 174.909C395.144 169.064 386.851 167.879 381.006 172.263C375.161 176.647 373.976 184.94 378.36 190.785C382.744 196.63 391.037 197.815 396.882 193.431Z" fill="#606060"/>
<path d="M459.45 259.395C459.052 259.395 458.671 259.553 458.389 259.834C458.108 260.116 457.95 260.497 457.95 260.895C457.95 261.293 458.108 261.674 458.389 261.956C458.671 262.237 459.052 262.395 459.45 262.395C459.848 262.395 460.229 262.237 460.511 261.956C460.792 261.674 460.95 261.293 460.95 260.895C460.95 260.497 460.792 260.116 460.511 259.834C460.229 259.553 459.848 259.395 459.45 259.395Z" fill="white"/>
<path d="M383.46 319.14V320.1C383.46 320.498 383.618 320.879 383.899 321.161C384.181 321.442 384.562 321.6 384.96 321.6C385.358 321.6 385.739 321.442 386.021 321.161C386.302 320.879 386.46 320.498 386.46 320.1V319.14C386.46 318.742 386.302 318.361 386.021 318.079C385.739 317.798 385.358 317.64 384.96 317.64C384.562 317.64 384.181 317.798 383.899 318.079C383.618 318.361 383.46 318.742 383.46 319.14Z" fill="white"/>
<path d="M278.4 343.02V343.98C278.4 344.378 278.558 344.759 278.839 345.041C279.121 345.322 279.502 345.48 279.9 345.48C280.298 345.48 280.679 345.322 280.961 345.041C281.242 344.759 281.4 344.378 281.4 343.98V343.02C281.4 342.622 281.242 342.241 280.961 341.959C280.679 341.678 280.298 341.52 279.9 341.52C279.502 341.52 279.121 341.678 278.839 341.959C278.558 342.241 278.4 342.622 278.4 343.02Z" fill="white"/>
<path d="M376.365 269.895C375.967 269.895 375.586 270.053 375.304 270.334C375.023 270.616 374.865 270.997 374.865 271.395C374.865 271.793 375.023 272.174 375.304 272.456C375.586 272.737 375.967 272.895 376.365 272.895C376.763 272.895 377.144 272.737 377.426 272.456C377.707 272.174 377.865 271.793 377.865 271.395C377.865 270.997 377.707 270.616 377.426 270.334C377.144 270.053 376.763 269.895 376.365 269.895Z" fill="white"/>
<path d="M196.815 267C196.417 267 196.036 267.158 195.754 267.439C195.473 267.721 195.315 268.102 195.315 268.5C195.315 268.898 195.473 269.279 195.754 269.561C196.036 269.842 196.417 270 196.815 270C197.213 270 197.594 269.842 197.876 269.561C198.157 269.279 198.315 268.898 198.315 268.5C198.315 268.102 198.157 267.721 197.876 267.439C197.594 267.158 197.213 267 196.815 267Z" fill="white"/>
<path d="M129.405 271.395V272.355C129.405 272.753 129.563 273.134 129.844 273.416C130.126 273.697 130.507 273.855 130.905 273.855C131.303 273.855 131.684 273.697 131.966 273.416C132.247 273.134 132.405 272.753 132.405 272.355V271.395C132.405 270.997 132.247 270.616 131.966 270.334C131.684 270.053 131.303 269.895 130.905 269.895C130.507 269.895 130.126 270.053 129.844 270.334C129.563 270.616 129.405 270.997 129.405 271.395Z" fill="white"/>
<path d="M161.475 318.6C161.077 318.6 160.696 318.758 160.414 319.039C160.133 319.321 159.975 319.702 159.975 320.1C159.975 320.498 160.133 320.879 160.414 321.161C160.696 321.442 161.077 321.6 161.475 321.6C161.873 321.6 162.254 321.442 162.536 321.161C162.817 320.879 162.975 320.498 162.975 320.1C162.975 319.702 162.817 319.321 162.536 319.039C162.254 318.758 161.873 318.6 161.475 318.6Z" fill="white"/>
<path d="M211.14 233.595C210.742 233.595 210.361 233.753 210.079 234.034C209.798 234.316 209.64 234.697 209.64 235.095C209.64 235.493 209.798 235.874 210.079 236.156C210.361 236.437 210.742 236.595 211.14 236.595C211.538 236.595 211.919 236.437 212.201 236.156C212.482 235.874 212.64 235.493 212.64 235.095C212.64 234.697 212.482 234.316 212.201 234.034C211.919 233.753 211.538 233.595 211.14 233.595Z" fill="white"/>
<path d="M284.67 185.85C284.272 185.85 283.891 186.008 283.609 186.289C283.328 186.571 283.17 186.952 283.17 187.35C283.17 187.748 283.328 188.129 283.609 188.411C283.891 188.692 284.272 188.85 284.67 188.85C285.068 188.85 285.449 188.692 285.731 188.411C286.012 188.129 286.17 187.748 286.17 187.35C286.17 186.952 286.012 186.571 285.731 186.289C285.449 186.008 285.068 185.85 284.67 185.85Z" fill="white"/>
<path d="M329.565 373.035C329.167 373.035 328.786 373.193 328.504 373.474C328.223 373.756 328.065 374.137 328.065 374.535C328.065 374.933 328.223 375.314 328.504 375.596C328.786 375.877 329.167 376.035 329.565 376.035C329.963 376.035 330.344 375.877 330.626 375.596C330.907 375.314 331.065 374.933 331.065 374.535C331.065 374.137 330.907 373.756 330.626 373.474C330.344 373.193 329.963 373.035 329.565 373.035Z" fill="white"/>
<path d="M428.88 288.72C419.235 288.72 419.205 303.72 428.88 303.72C438.555 303.72 438.555 288.72 428.88 288.72Z" fill="#FFAE46"/>
<path d="M159.57 280.125C149.925 280.125 149.895 295.125 159.57 295.125C169.245 295.125 169.23 280.125 159.57 280.125Z" fill="#FFAE46"/>
<path d="M303.345 378.78C301.939 377.374 300.031 376.584 298.043 376.584C296.054 376.584 294.146 377.374 292.74 378.78C291.361 380.207 290.578 382.106 290.55 384.09V385.05C290.572 387.035 291.356 388.936 292.74 390.36C294.146 391.766 296.054 392.556 298.043 392.556C300.031 392.556 301.939 391.766 303.345 390.36C304.724 388.933 305.507 387.034 305.535 385.05V384.09C305.513 382.105 304.729 380.204 303.345 378.78V378.78Z" fill="#00AEE1"/>
<path d="M166.125 178.11C184.185 178.11 198.825 163.47 198.825 145.41C198.825 127.35 184.185 112.71 166.125 112.71C148.065 112.71 133.425 127.35 133.425 145.41C133.425 163.47 148.065 178.11 166.125 178.11Z" fill="#68E1FD"/>
<path d="M192.72 127.425C196.17 126.474 199.677 125.742 203.22 125.235C204.999 124.965 206.792 124.795 208.59 124.725C210.456 124.62 212.329 124.731 214.17 125.055C215.235 125.235 216.254 125.623 217.17 126.195C217.722 126.559 218.192 127.034 218.55 127.59C218.926 128.196 219.142 128.888 219.18 129.6C219.193 130.778 218.92 131.941 218.385 132.99C217.96 133.882 217.458 134.735 216.885 135.54C214.611 138.461 211.98 141.086 209.055 143.355C203.44 147.825 197.476 151.838 191.22 155.355C185.031 158.933 178.657 162.183 172.125 165.09C165.592 168.046 158.884 170.601 152.04 172.74C148.591 173.841 145.086 174.757 141.54 175.485C137.906 176.283 134.214 176.789 130.5 177C128.597 177.098 126.689 177.022 124.8 176.775C122.779 176.546 120.812 175.978 118.98 175.095C117.974 174.611 117.052 173.968 116.25 173.19C115.35 172.3 114.703 171.187 114.375 169.965C114.085 168.798 114.085 167.577 114.375 166.41C114.622 165.395 115 164.417 115.5 163.5C117.477 160.308 120.018 157.502 123 155.22C125.754 152.94 128.7 150.902 131.805 149.13C129.232 151.506 126.779 154.01 124.455 156.63C122.13 159.109 120.203 161.932 118.74 165C118.151 166.17 118.012 167.515 118.35 168.78C118.544 169.25 118.853 169.663 119.25 169.98C119.763 170.38 120.328 170.708 120.93 170.955C123.914 171.944 127.083 172.247 130.2 171.84C136.994 171.05 143.68 169.511 150.135 167.25C156.735 165.12 163.17 162.45 169.635 159.75C182.428 154.27 194.672 147.59 206.205 139.8C208.975 137.886 211.534 135.684 213.84 133.23C214.352 132.655 214.813 132.038 215.22 131.385C215.539 130.883 215.753 130.322 215.85 129.735C215.864 129.535 215.823 129.335 215.734 129.156C215.644 128.976 215.508 128.824 215.34 128.715C214.773 128.303 214.139 127.993 213.465 127.8C210.147 127.002 206.733 126.679 203.325 126.84C199.77 126.855 196.245 127.065 192.72 127.425Z" fill="#8CC63F"/>
</svg>
