<svg width="426" height="393" viewBox="0 0 426 393" fill="none" xmlns="http://www.w3.org/2000/svg">
<path d="M10.5937 50.8148C29.4229 64.7815 42.9972 10.0476 62.144 21.5282C85.2582 35.3876 39.2171 82.7499 62.144 96.9976C80.6637 108.506 95.9327 68.083 114.195 80.1014C135.96 94.425 92.5123 138.274 114.195 152.755C135.544 167.012 147.452 110.44 170.75 120.089C200.465 132.395 140.221 201.877 170.75 211.328C196.713 219.365 196.902 160.401 223.802 161.766C263.068 163.759 202.396 255.884 238.316 273.844C269.368 289.37 286.161 223.444 318.394 235.546C364.56 252.879 280.741 341.085 318.394 375.784C360.659 414.733 385.514 380.862 427 340.865V-1H1.08447C1.08447 -1 -4.73652 39.4434 10.5937 50.8148Z" fill="white"/>
</svg>
